PathFileType	4	(X/Y/Z)	D:\TRACE\spotREDO_2-26-24\spot_baseline_1-v60.trc
DataRate	CameraRate	NumFrames	NumMarkers	Units	OrigDataRate	OrigDataStartFrame	OrigNumFrames
100.00	100.00	      42	9	mm	100.00	1	      7000
Frame#	Time	front left toe			Front right toe			aft left toe			aft right toe			Arm			FL body			FR body			AL Body			AR Body			
		X1	Y1	Z1	X2	Y2	Z2	X3	Y3	Z3	X4	Y4	Z4	X5	Y5	Z5	X6	Y6	Z6	X7	Y7	Z7	X8	Y8	Z8	X9	Y9	Z9	

1	0.000	-293.36218	21.73897	-254.38322	216.34807	23.02232	-319.93008	-211.08078	23.46807	335.69870	292.78568	26.64462	272.08820	-34.97784	807.35107	-410.69174	-116.83808	548.72278	-375.12744	37.98449	552.39758	-396.91403	-3.64696	561.21472	501.10913	142.45844	560.96301	482.88812	
2	0.010	-293.31754	21.72696	-254.38425	216.25569	22.97278	-319.87460	-211.06194	23.49914	335.67358	292.77658	26.62572	272.14865	-34.64610	807.33313	-409.75925	-116.18003	548.69171	-374.30353	38.57843	552.35376	-396.14648	-3.40719	561.16443	501.87103	142.36075	560.95703	483.73059	
3	0.020	-293.25610	21.67266	-254.32899	216.31909	22.97908	-319.83139	-211.04504	23.55840	335.67786	292.92365	26.62093	272.17670	-34.30378	807.43750	-409.06717	-115.96467	548.73761	-374.04169	38.96498	552.38562	-395.33252	-2.73820	561.02399	502.48737	142.77310	560.95953	484.49722	
4	0.030	-293.24817	21.68812	-254.27795	216.39676	22.94963	-319.80109	-210.99725	23.53297	335.74649	292.89676	26.61286	272.26843	-34.10237	807.37067	-408.32483	-115.41118	548.79578	-372.87012	39.26047	552.35040	-394.63654	-2.45887	560.88538	503.12897	143.01407	560.96057	485.06216	
5	0.040	-293.22775	21.67261	-254.24182	216.28751	22.85755	-319.74991	-210.97159	23.48318	335.79919	292.93436	26.62010	272.35519	-33.76432	807.32037	-407.46942	-115.26442	548.68433	-372.18756	39.78349	552.30035	-393.64246	-2.30037	561.16565	504.19720	143.40388	560.92584	486.12161	
6	0.050	-293.19159	21.63737	-254.19072	216.35329	22.86034	-319.71088	-210.93842	23.52254	335.77670	292.95590	26.60518	272.41946	-33.48240	807.42737	-406.78833	-115.15265	548.83246	-371.38022	39.99927	552.24097	-392.97003	-2.03813	561.17401	505.02704	143.61502	560.86859	486.73248	
7	0.060	-293.18048	21.69229	-254.12506	216.32103	22.91328	-319.69070	-210.89784	23.58597	335.79269	293.02664	26.64971	272.47235	-32.90775	807.32965	-406.02344	-114.64992	548.76990	-370.44208	40.46925	551.84314	-391.77988	-1.57912	561.25787	505.76160	143.77768	560.87036	487.64316	
8	0.070	-293.16382	21.69197	-254.08720	216.33061	22.85695	-319.67575	-210.83978	23.58563	335.82474	292.99454	26.62470	272.50467	-32.54248	807.40582	-405.20673	-114.51325	548.88263	-369.78000	40.80519	551.90991	-390.91827	-1.31439	561.29388	506.65735	144.24249	560.84985	488.50705	
9	0.080	-293.13541	21.70409	-254.02559	216.39801	22.84505	-319.57654	-210.91174	23.62262	335.86139	293.01126	26.63256	272.64102	-32.38493	807.38245	-404.46893	-114.03036	548.79419	-368.85956	41.05672	551.88708	-390.06903	-0.98778	561.30743	507.40997	144.58160	560.92157	489.11426	
10	0.090	-293.11212	21.70982	-253.99460	216.26041	22.82365	-319.52957	-210.88396	23.60513	335.93912	292.91547	26.59033	272.68958	-31.69433	807.23865	-403.29468	-113.81681	548.82123	-367.98343	41.30715	551.88507	-389.22092	-0.68840	561.19244	508.28958	145.00443	560.81934	490.11835	
11	0.100	-293.09961	21.73311	-253.91747	216.37428	22.75461	-319.48358	-210.92787	23.55770	335.98703	292.99640	26.57787	272.69809	-31.45057	807.28265	-402.58725	-113.67643	548.87042	-367.22025	40.72762	552.33661	-388.83228	-0.32568	561.25305	509.16043	146.64102	560.72467	491.15335	
12	0.110	-293.09406	21.78407	-253.87280	216.46657	22.72788	-319.44025	-210.88742	23.61321	336.01437	293.03891	26.62312	272.76144	-31.04000	807.33435	-401.69321	-113.04516	549.03912	-366.19516	40.88148	552.37469	-388.00082	0.39642	561.13629	509.82919	147.83296	560.58588	492.10254	
13	0.120	-293.10211	21.86012	-253.85632	216.53891	22.82100	-319.37149	-210.79762	23.71833	336.07022	293.07047	26.60840	272.80264	-30.82351	807.42383	-400.94342	-112.88203	549.01807	-365.41614	42.12949	552.30707	-387.06427	0.98945	561.26599	510.69241	147.67596	560.64185	492.83109	
14	0.130	-293.12634	21.88203	-253.80548	216.75851	23.07464	-319.21323	-210.80029	23.74052	336.11618	293.09674	26.61235	272.84357	-30.59624	807.51929	-400.08282	-112.50327	549.12244	-364.61774	42.16448	552.21332	-386.25919	1.20933	561.35718	511.79099	147.92395	560.52740	493.57861	
15	0.140	-293.13599	21.89596	-253.72838	216.63574	23.02944	-319.27814	-210.76822	23.75950	336.17520	293.11713	26.57107	272.83743	-30.13475	807.34845	-398.95706	-112.46695	548.99268	-363.42862	42.68711	552.18469	-385.29770	1.80499	561.36316	512.59021	147.18546	560.77313	494.43771	
16	0.150	-293.14771	21.86873	-253.69896	216.67363	23.04128	-319.22699	-210.78220	23.72084	336.26297	293.05634	26.48240	272.84595	-30.00168	807.43561	-398.30405	-112.57919	549.35565	-363.37122	42.96001	552.19226	-384.38309	2.23215	561.30597	513.55530	147.62874	560.72107	495.11469	
17	0.160	-293.12653	21.84707	-253.60475	215.98730	22.70435	-319.26703	-210.75273	23.69087	336.29712	293.10803	26.42233	272.91293	-29.48663	807.27911	-397.10995	-111.53103	548.87323	-361.69736	43.50377	552.27710	-383.42398	2.61769	561.23633	514.54028	148.37099	560.75488	496.23810	
18	0.170	-293.12079	21.91001	-253.54932	216.05034	22.68945	-319.20129	-210.70488	23.81642	336.31723	293.15277	26.38558	272.97577	-29.21103	807.28558	-396.49686	-111.94103	549.43738	-361.68042	43.87649	552.20264	-382.59128	3.00583	561.26617	515.32544	148.76563	560.72461	496.89056	
19	0.180	-293.08170	21.97710	-253.51550	215.98106	22.71432	-319.17624	-210.67914	23.80345	336.44461	293.22458	26.38938	273.01154	-28.84096	807.35028	-395.27783	-111.14809	549.12195	-360.19824	44.07532	552.14941	-381.77478	3.44956	561.18231	516.38232	149.56468	560.72852	498.10315	
20	0.190	-293.01666	21.99943	-253.46213	215.97171	22.68236	-319.10941	-210.68257	23.79841	336.48532	293.20071	26.35441	273.15198	-28.65810	807.22638	-394.39273	-111.07578	549.28345	-359.60373	44.67446	552.23529	-380.64340	3.93899	561.17676	517.22278	150.00432	560.77814	498.88275	
21	0.200	-293.03723	21.98033	-253.44118	216.20839	22.72272	-318.96298	-210.70149	23.79210	336.55130	293.19031	26.28186	273.17691	-28.43662	807.27539	-393.47827	-109.58616	548.43079	-357.70758	44.86843	552.11987	-379.84576	4.74517	560.99316	518.18866	150.49567	560.79718	499.89828	
22	0.210	-293.00174	21.97400	-253.39172	216.09547	22.56067	-318.98944	-210.63570	23.76213	336.64105	293.33145	26.28646	273.28983	-27.92220	807.23297	-392.42792	-109.15077	548.34888	-357.10837	45.59972	552.16913	-378.77863	5.43587	560.91663	519.11823	150.74478	560.84949	500.94269	
23	0.220	-292.00714	25.85458	-252.54295	216.41618	22.13911	-319.04398	-210.54877	23.03522	336.97369	293.33469	26.52356	273.33054	-27.64152	807.32220	-391.59183	-108.48262	548.25305	-355.80518	45.50229	552.70642	-377.95688	5.77216	560.69122	519.95276	151.55606	560.67157	501.79172	
24	0.230	-289.28604	35.26706	-248.13693	216.95166	22.34642	-318.74738	-210.54837	23.12648	336.98993	293.44232	26.36043	273.44342	-28.08442	807.42340	-390.35135	-107.87015	548.07880	-355.29694	47.19108	552.86194	-376.92966	5.67377	560.57764	521.05475	151.73784	560.97083	502.86081	
25	0.240	-286.27090	45.71955	-242.37555	216.97205	22.29737	-318.78131	-210.29460	23.20173	336.75562	293.59238	26.50193	273.46927	-28.38969	807.31458	-389.56592	-107.47847	547.95105	-355.17978	47.59846	552.92749	-376.33774	5.94863	560.49561	521.72717	152.19595	561.01593	503.78214	
26	0.250	-286.13904	56.95049	-237.89177	216.88852	22.27826	-318.82797	-210.26517	23.45231	336.71820	293.36465	26.38033	273.44339	-28.61552	807.06549	-389.03220	-106.60299	547.38300	-353.81387	48.10696	552.89838	-375.47476	6.36319	560.46942	522.46112	152.53552	561.47382	504.28284	
27	0.260	-286.89999	68.77338	-237.28853	216.58134	22.19069	-318.92877	-210.18192	23.55120	336.88663	293.37863	26.31814	273.45627	-28.50218	806.72192	-388.41922	-106.47151	547.01172	-353.08768	48.51698	552.64905	-374.66986	7.21749	560.60925	523.32446	153.61917	561.80621	505.05127	
28	0.270	-287.93695	80.61916	-238.48152	216.52811	22.24167	-318.88867	-210.01749	23.74745	336.85648	293.80179	26.44283	273.51492	-28.11885	806.28406	-387.52219	-106.13493	546.77826	-352.07220	48.51955	552.37769	-373.98944	7.93798	560.67975	524.08722	154.54250	562.03119	505.76929	
29	0.280	-286.69281	92.05122	-238.85516	216.35326	22.29754	-318.82849	-209.99062	23.81742	336.98785	293.75638	26.24780	273.54712	-28.15425	806.30042	-386.89484	-105.97163	546.81598	-351.30945	48.70562	552.38397	-373.16861	8.52842	560.64032	524.79572	154.86792	561.95343	506.30673	
30	0.290	-283.98544	102.79087	-237.02177	216.29619	22.29548	-318.86777	-209.90814	23.65950	337.12787	293.98892	26.30010	273.58423	-27.80100	806.56293	-386.02701	-106.50828	547.38123	-351.10831	48.89832	552.53998	-372.46964	8.98103	560.41064	525.67798	155.53841	561.61798	507.07178	
31	0.300	-281.39246	111.47672	-232.43759	216.53586	22.40086	-318.67990	-209.86261	23.54618	337.23666	293.82553	26.17920	273.58817	-27.84744	806.74567	-384.93631	-105.67927	546.98615	-349.68085	49.03917	552.67395	-371.72708	9.06516	560.09357	526.34589	155.89438	561.21588	507.96353	
32	0.310	-279.55835	119.87563	-226.95433	216.68199	22.41158	-318.69196	-209.89279	23.57049	337.22855	293.65399	26.07469	273.59875	-27.83914	806.88470	-384.18420	-105.31355	546.85223	-349.13498	49.32309	552.65710	-371.12750	9.40559	559.71643	526.92450	156.06487	561.07263	508.50140	
33	0.320	-278.54904	127.24979	-221.87776	216.77287	22.44860	-318.61685	-209.84293	23.52247	337.23062	293.69531	26.09101	273.61951	-27.44547	806.80212	-383.60434	-105.45733	547.05902	-349.00226	49.26414	552.57941	-370.53674	9.59988	559.58313	527.57794	156.64685	560.81250	509.15491	
34	0.330	-277.84442	133.12584	-217.93388	216.62296	22.42069	-318.64954	-209.90706	23.62377	337.23938	293.65656	26.09069	273.64566	-26.86223	806.54163	-382.91150	-104.64879	546.74860	-347.89929	49.36237	552.36963	-369.87753	9.55783	559.62640	528.35687	156.79306	560.84259	509.82843	
35	0.340	-277.18521	136.96959	-214.83336	216.60223	22.38754	-318.68051	-209.94327	23.67058	337.24744	293.51929	26.00451	273.64832	-26.31409	806.34900	-382.34485	-104.45617	546.71674	-347.15683	49.44991	552.24231	-369.16748	10.44950	559.45734	528.85736	157.32037	560.81049	510.58383	
36	0.350	-275.89917	138.72041	-211.78658	216.68678	22.44832	-318.57275	-209.82152	23.56368	337.29150	293.89670	26.19876	273.77237	-25.79402	806.30798	-381.72180	-104.65321	546.95917	-346.95053	50.48219	552.16907	-368.33200	10.78321	559.54816	529.49457	157.64038	560.75641	511.37778	
37	0.360	-274.40186	138.15910	-208.01360	216.81831	22.49604	-318.53320	-209.89166	23.58659	337.27557	293.60077	26.03082	273.73337	-25.59215	806.42096	-381.22180	-104.13695	546.67694	-345.89484	50.72199	552.28033	-367.70157	10.59020	559.58569	530.36407	157.64682	560.81531	511.83981	
38	0.370	-272.22501	136.93643	-203.08855	216.83990	22.46032	-318.49518	-209.85617	23.57913	337.26309	293.75665	26.11245	273.86801	-25.33086	806.45496	-380.41461	-103.88866	546.71082	-345.21109	50.90764	552.24615	-367.13382	10.36391	559.52502	531.02350	157.50151	560.70508	512.56708	
39	0.380	-270.43146	135.02438	-197.47064	216.92296	22.40844	-318.45767	-209.85242	23.59039	337.27466	293.80759	26.16811	273.96371	-25.23231	806.48596	-379.79623	-103.96706	546.76678	-344.97488	51.41921	552.32709	-366.47583	10.15879	559.41986	531.46735	157.62917	560.55682	513.40082	
40	0.390	-268.75732	134.35583	-191.89198	217.00397	22.42223	-318.31287	-209.87047	23.64157	337.23502	293.82718	26.22002	274.03934	-25.01154	806.41309	-379.26190	-103.82900	546.72064	-344.81354	51.64467	552.32166	-365.97363	10.22112	559.36536	532.05640	157.64487	560.46118	513.77136	
41	0.400	-267.60596	134.26585	-186.95670	216.83749	22.33144	-318.32434	-209.95909	23.65095	337.26779	293.77386	26.18142	274.11407	-24.67503	806.09644	-378.67786	-103.14233	546.36694	-343.69385	51.75062	552.09711	-365.48822	10.68531	559.09039	532.71149	157.39966	560.22028	514.45679	
42	0.410	-266.64148	134.12958	-182.25029	216.85097	22.35669	-318.18655	-209.95714	23.60328	337.31253	293.73978	26.16785	274.20270	-24.46949	805.99072	-378.32297	-103.02850	546.34283	-343.03839	51.83684	551.91797	-364.90094	10.40140	559.28552	533.25250	158.17099	560.15454	515.57800	
